<svg width="315" height="70.54966013197192" viewBox="0 0 315 70.54966013197192" class="css-1j8o68f"><defs id="SvgjsDefs1285"></defs><g id="SvgjsG1286" featurekey="HdFLvg-0" transform="matrix(1.6905613816620337,0,0,1.6905613816620337,-43.916804901116095,-49.25197179256931)" fill="#5e63b6"><path xmlns="http://www.w3.org/2000/svg" d="M37.516,67.922c0.137,0.11,0.322,0.14,0.486,0.079l2.866-1.057l3.774,3.774l0.003-0.003  c0.005,0.005,0.007,0.013,0.013,0.019c0.093,0.084,0.213,0.131,0.337,0.131c0.02,0,0.041-0.001,0.061-0.004l26.203-3.203  c0.132-0.016,0.252-0.084,0.334-0.189c0.082-0.104,0.118-0.238,0.102-0.37l-3.536-28.13c-0.023-0.188-0.15-0.341-0.319-0.405v0  l-4.417-1.667c-0.057-0.021-0.116-0.032-0.177-0.032h-2.187v-3.333c0-0.082-0.02-0.162-0.058-0.234l-0.75-1.417  c-0.086-0.164-0.257-0.266-0.442-0.266h-0.242l-0.785-0.979c-0.095-0.119-0.238-0.188-0.39-0.188h-8.125  c-0.161,0-0.311,0.077-0.405,0.207l-1.25,1.729c-0.062,0.085-0.095,0.188-0.095,0.293v4.188h-0.592l-1.018-2.831  c-0.051-0.141-0.175-0.237-0.316-0.257l0,0l-3.697-0.524c-0.047-0.007-0.095-0.005-0.142,0.005l-1.688,0.377l-0.575-2.572  c-0.014-0.063-0.043-0.121-0.085-0.171l-0.824-0.964c-0.095-0.111-0.244-0.161-0.387-0.129l-0.187,0.042l-0.775-0.621  c-0.094-0.075-0.216-0.103-0.333-0.077l-6.271,1.403c-0.124,0.028-0.227,0.113-0.277,0.23l-0.667,1.55  c-0.033,0.077-0.041,0.162-0.022,0.242l0.723,3.232l-5.097,1.14l0.001,0.005c-0.067,0.016-0.131,0.042-0.183,0.09  c-0.09,0.083-0.136,0.203-0.126,0.325l2.055,23.988c0.012,0.139,0.096,0.26,0.22,0.321c0.125,0.062,0.273,0.053,0.389-0.022  l2.03-1.311l3.564,2.262l0.001-0.002c0.005,0.003,0.008,0.008,0.014,0.012c0.086,0.049,0.187,0.064,0.283,0.042  c0.016-0.003,0.031-0.008,0.046-0.013l3.58-1.273l-0.826,6.101C37.31,67.639,37.379,67.813,37.516,67.922z M44.885,58.133  l-0.027,0.849l-0.326,10.213l-3.184-3.184c-0.138-0.139-0.345-0.183-0.526-0.116l-2.387,0.88l0.784-5.789l0.119-0.881l2.982-22.034  l3.164,1.292L44.885,58.133z M61.058,37.865h2.096l1.767,0.667h-3.863V37.865z M67.221,39.532l3.418,27.195l-25.126,3.071  l0.356-11.176l0.027-0.849l0.582-18.241H67.221z M58.743,37.865v0.667h-6.35l0.002-0.667H58.743z M52.398,36.865l0.008-2.693  l0.365-0.365l4.558-0.019v3.077H52.398z M58.329,36.865v-3.081l0.245-0.001l0.169,0.36v2.722H58.329z M59.507,32.615l0.551,1.041  v4.876h-0.315v-4.5c0-0.073-0.016-0.146-0.047-0.212l-0.352-0.75c-0.082-0.175-0.259-0.288-0.453-0.288c0,0-0.001,0-0.001,0  l-6.328,0.026c-0.132,0-0.258,0.053-0.352,0.146l-0.656,0.656c-0.093,0.093-0.146,0.22-0.146,0.352l-0.009,2.902l-0.003,1  l-0.002,0.667h-0.418v-4.992l0.74-0.925H59.507z M49.516,32.839l1.005-1.391h7.629l0.133,0.167h-6.81  c-0.152,0-0.295,0.069-0.391,0.188l-1,1.25c-0.071,0.089-0.109,0.199-0.109,0.313v3.5h-0.458V32.839z M49.975,37.865v0.667h-3.881  l-1.634-0.667H49.975z M42.853,34.046l1.479,0.209l-2.982,0.667l-0.115-0.515L42.853,34.046z M39.132,30.623l0.605,0.709  l0.554,2.477l0.172,0.772l0.115,0.515l-0.243,0.054l-0.116-0.515l-0.172-0.772l-0.489-2.187c-0.013-0.056-0.038-0.11-0.073-0.156  l-0.4-0.518c-0.094-0.121-0.25-0.177-0.4-0.144c0,0,0,0-0.001,0l-4.879,1.112c-0.102,0.023-0.19,0.086-0.246,0.174l-0.394,0.62  c-0.056,0.087-0.075,0.194-0.052,0.297l0.494,2.241l0.17,0.773l0.114,0.515l-0.323,0.073l-0.115-0.515l-0.173-0.772l-0.574-2.566  l0.412-0.842L39.132,30.623z M39.448,34.808l0.116,0.515l-4.901,1.096l-0.114-0.515L39.448,34.808z M34.378,35.131L33.92,33.05  l0.219-0.344l3.514-0.801l0.531,2.375L34.378,35.131z M38.424,31.729l0.189-0.042l0.193,0.248l0.469,2.101l-0.319,0.071  L38.424,31.729z M31.995,31.274l5.889-1.317l0.132,0.106l-5.256,1.175c-0.117,0.026-0.216,0.104-0.27,0.212l-0.556,1.138  c-0.04,0.081-0.05,0.172-0.031,0.26l0.604,2.701l-0.354,0.079l-0.695-3.107L31.995,31.274z M32.681,36.321l0.115,0.515l-2.996,0.67  l-1.376-0.233L32.681,36.321z M30.881,59.534c-0.13-0.083-0.298-0.082-0.426,0.001l-1.691,1.091l-1.955-22.825l2.665,0.451  l4.415,23.189L30.881,59.534z M34.749,61.738l-4.479-23.527l3.084-0.69l1.093-0.244l5.674-1.269l1.016-0.227l5.143-1.15l0.803,2.235  h-5.171v0.006c-0.087,0-0.173,0.016-0.25,0.061c-0.134,0.077-0.224,0.212-0.245,0.366l-3.138,23.185L34.749,61.738z M82.172,44.906"></path></g><g id="SvgjsG1287" featurekey="VomJeJ-0" transform="matrix(2.118195338683875,0,0,2.118195338683875,112.66998532945459,2.8671923342764103)" fill="#5e63b6"><path d="M1.1 19.96 l1.06 -13.6 q0.88 -0.16 2.08 -0.16 t2.1 0.16 l1.18 4.9 q0.7 3.32 0.74 3.62 l0.14 0 q0.08 -0.5 0.74 -3.62 l1.2 -4.9 q0.88 -0.16 2.08 -0.16 t2.1 0.16 l1.06 13.6 q-0.62 0.16 -1.53 0.16 t-1.49 -0.1 l-0.32 -5.56 q-0.14 -3.32 -0.16 -4.62 l-0.12 0 l-1.98 8.14 q-0.72 0.12 -1.65 0.12 t-1.65 -0.12 l-1.96 -8.14 l-0.14 0 q0 1.78 -0.16 4.62 l-0.3 5.56 q-0.58 0.1 -1.49 0.1 t-1.53 -0.16 z M25.64 16.02 l-5.22 0 q0.04 0.9 0.46 1.4 t1.38 0.5 q0.48 0 1.11 -0.14 t1.45 -0.46 q0.66 0.68 0.82 1.84 q-1.6 1.14 -3.92 1.14 q-1.26 0 -2.11 -0.4 t-1.38 -1.12 t-0.75 -1.7 t-0.22 -2.14 q0 -1.12 0.27 -2.07 t0.82 -1.65 t1.4 -1.1 t1.99 -0.4 q0.96 0 1.73 0.32 t1.31 0.88 t0.83 1.34 t0.29 1.7 q0 1.22 -0.26 2.06 z M20.4 13.86 l2.64 0 l0 -0.22 q0 -0.74 -0.33 -1.22 t-0.99 -0.48 q-0.64 0 -0.95 0.45 t-0.37 1.47 z M33.88 10.66 q0.68 -0.76 1.88 -0.8 q0.32 0.24 0.61 0.72 t0.35 0.88 q-0.56 0.38 -0.56 1.44 l0 5.28 q0 1.84 -0.29 3.05 t-0.88 1.92 t-1.49 0.99 t-2.12 0.28 q-2.06 0 -3.76 -0.66 q0 -0.56 0.22 -1.22 t0.54 -1.04 q1.34 0.6 2.72 0.6 q2.02 0 2.02 -2.02 l0 -0.66 q-1.08 0.78 -2.28 0.78 q-1.78 0 -2.69 -1.41 t-0.91 -3.83 q0 -1.22 0.31 -2.19 t0.85 -1.65 t1.25 -1.04 t1.51 -0.36 q1.62 0 2.72 0.94 z M33.120000000000005 17 l0 -4.28 q-0.7 -0.68 -1.32 -0.68 q-1.36 0 -1.36 3 q0 2.64 1.18 2.64 q0.82 0 1.5 -0.68 z M47 18.56 q-0.1 0.42 -0.38 0.9 t-0.58 0.7 q-1.4 -0.04 -2.16 -1.06 q-1.3 1.2 -2.82 1.2 q-0.78 0 -1.36 -0.25 t-0.98 -0.67 t-0.6 -0.97 t-0.2 -1.15 q0 -0.86 0.31 -1.51 t0.85 -1.08 t1.26 -0.65 t1.54 -0.22 q0.46 0 0.81 0.01 t0.61 0.03 l0 -0.38 q0 -1.26 -1.3 -1.26 q-0.84 0 -2.94 0.64 q-0.6 -0.7 -0.76 -2.18 q0.48 -0.18 1.07 -0.34 t1.21 -0.28 t1.22 -0.19 t1.08 -0.07 q0.7 0 1.35 0.2 t1.14 0.61 t0.78 1.06 t0.29 1.55 l0 4.06 q0 0.92 0.56 1.3 z M40.96 17.06 q0 0.94 1.08 0.94 q0.56 0 1.26 -0.58 l0 -1.6 q-0.4 -0.02 -0.67 -0.03 t-0.41 -0.01 q-1.26 0 -1.26 1.28 z M52.379999999999995 19.32 q0.02 -0.52 0.27 -1.14 t0.59 -0.98 q1.6 0.84 2.78 0.84 q0.56 0 0.86 -0.19 t0.3 -0.51 q0 -0.6 -0.92 -0.9 l-1.1 -0.42 q-2.5 -0.92 -2.5 -3 q0 -1.52 1.05 -2.41 t2.83 -0.89 q0.88 0 1.94 0.25 t1.74 0.59 q0.04 0.56 -0.22 1.23 t-0.64 0.95 q-1.68 -0.76 -2.8 -0.76 q-0.4 0 -0.61 0.18 t-0.21 0.46 q0 0.48 0.76 0.76 l1.24 0.44 q2.66 0.94 2.66 3.22 q0 1.5 -1.1 2.38 t-3.14 0.88 t-3.78 -0.98 z M67.88 10 q0.12 0.56 0.12 1.12 t-0.12 1.1 l-2.38 -0.04 l0 4.6 q0 0.94 0.88 0.94 l1.12 0 q0.26 0.72 0.26 1.32 t-0.08 0.86 q-1.48 0.2 -2.72 0.2 q-2.52 0 -2.52 -2.78 l0 -5.12 l-1.56 0.02 q-0.14 -0.5 -0.14 -1.09 t0.14 -1.13 l1.56 0.04 l0 -1.16 q0 -1.02 0.39 -1.45 t1.31 -0.43 l1.22 0 l0.14 0.14 l0 2.9 z M76.60000000000001 10.9 q1.44 1.44 1.44 4.12 q0 1.2 -0.31 2.18 t-0.9 1.67 t-1.45 1.06 t-1.98 0.37 t-1.97 -0.38 t-1.44 -1.07 t-0.89 -1.67 t-0.3 -2.16 q0 -1.2 0.3 -2.17 t0.88 -1.67 t1.44 -1.08 t1.98 -0.38 q1.98 0 3.2 1.18 z M73.42 12.059999999999999 q-0.44 0 -0.71 0.21 t-0.43 0.57 t-0.22 0.83 t-0.06 1.01 q0 0.84 0.05 1.45 t0.2 1.02 t0.42 0.61 t0.71 0.2 q0.88 0 1.16 -0.77 t0.28 -2.19 q0 -1.44 -0.28 -2.19 t-1.12 -0.75 z M79.24 11.46 q0.1 -0.4 0.38 -0.89 t0.56 -0.71 q1.84 0.14 2.56 1.82 q0.76 -1.8 2.5 -1.8 q0.52 0 1.32 0.16 q0 0.62 -0.21 1.47 t-0.57 1.45 q-0.34 -0.12 -1.02 -0.2 q-1 0 -1.64 1.02 l0 6.22 q-0.66 0.12 -1.55 0.12 t-1.57 -0.12 l0 -6.46 q0 -1.5 -0.76 -2.08 z M95.26 16.02 l-5.22 0 q0.04 0.9 0.46 1.4 t1.38 0.5 q0.48 0 1.11 -0.14 t1.45 -0.46 q0.66 0.68 0.82 1.84 q-1.6 1.14 -3.92 1.14 q-1.26 0 -2.11 -0.4 t-1.38 -1.12 t-0.75 -1.7 t-0.22 -2.14 q0 -1.12 0.27 -2.07 t0.82 -1.65 t1.4 -1.1 t1.99 -0.4 q0.96 0 1.73 0.32 t1.31 0.88 t0.83 1.34 t0.29 1.7 q0 1.22 -0.26 2.06 z M90.02 13.86 l2.64 0 l0 -0.22 q0 -0.74 -0.33 -1.22 t-0.99 -0.48 q-0.64 0 -0.95 0.45 t-0.37 1.47 z"></path></g></svg>